<?xml version="1.0" encoding="utf-8"?>
<!-- Generator: Adobe Illustrator 17.1.0, SVG Export Plug-In . SVG Version: 6.00 Build 0)  -->
<!DOCTYPE svg PUBLIC "-//W3C//DTD SVG 1.1//EN" "http://www.w3.org/Graphics/SVG/1.1/DTD/svg11.dtd">
<svg version="1.1" id="Calque_1" xmlns="http://www.w3.org/2000/svg" xmlns:xlink="http://www.w3.org/1999/xlink" x="0px" y="0px"
	 viewBox="0 0 1024 171.1" enable-background="new 0 0 1024 171.1" xml:space="preserve">
<path fill="#FFFFFF" d="M16,59.1h12c0,0,0.1-15.4,0-18.6s0-11.4,5.5-19.9S57,10,57,10v7.1c0,0-5.4,0.1-11.3,4.1s-7.1,12.8-7.1,19.2
	s0.1,18.7,0.1,18.7H57v7H38.2l0.1,102H28l0.1-102H16V59.1z"/>
<path fill="#FFFFFF" d="M112.8,67.1l3.2-9.8c0,0-13.6,0.3-20.8,1.2C85,60,77,64.9,77,64.9v103.2h11v-98c0,0,4-3.3,10.2-4.2
	C106.7,64.8,112.8,67.1,112.8,67.1z"/>
<path fill="#FFFFFF" d="M184.9,65.3c-7.8-6.8-18.8-9-29.8-8s-23.6,7.9-23.6,7.9l3.2,7.9c0,0,9.2-6.5,19.8-7.2c7.7-0.6,18.5,0.5,24,7
	s4.8,24.2,4.8,24.2s-23.8,1.8-41,11.5c-15.9,9-19.2,31.2-14,43c7.8,17.6,22.8,18.5,38.5,18.2s26.2-7.8,26.2-7.8s0-63.2,0-71.3
	C193,82.8,192.7,72.1,184.9,65.3z M183,159.1c0,0-9.5,3.2-13.8,3.2s-15.5,1.2-23.5-4.2s-9.2-15.9-8.5-24.8s6.6-16.8,14-20.6
	c8.8-4.4,15.5-5.9,31.8-8.4V159.1z"/>
<path fill="#FFFFFF" d="M222,65.1v103h11v-98c0,0,6.4-5,19.6-5S279,69.9,279,88.6s0,79.5,0,79.5h11v-80c0,0,3.8-32.8-37.2-30.8
	C232.3,58.4,222,65.1,222,65.1z"/>
<polygon fill="#FFFFFF" points="320,10.1 330,10.1 330,110.1 370.5,59.1 382,59.1 340.5,110.1 386.8,168.1 374,168.1 330.2,112.7 
	330.5,168.1 320,168.1 "/>
<rect x="404" y="59.1" fill="#FFFFFF" width="11" height="109"/>
<path fill="#FFFFFF" d="M409.5,21.6c3,0,7.2,2.8,6.8,7.5s-1.2,7.2-6.8,7.5c-4,0.2-7-3.2-7-7.5S405,21.6,409.5,21.6z"/>
<path fill="#FFFFFF" stroke="#FFFFFF" stroke-miterlimit="10" d="M508.5,71.6c-9.8-16.5-29.5-14.8-32-14.5s-26,1.7-33.8,33.7
	c-7.8,32,4.7,61,11,67c24.5,23.5,58.2,5.2,58.2,5.2l-3.2-8.5c0,0-8.8,6.2-25.5,6c-20.5-0.3-30-17.9-32.8-42.2l65.5-10.2
	C516,108.1,518.2,88.1,508.5,71.6z M505.8,102.1l-55.5,9c0,0-3.2-46,28-45.8S505.8,102.1,505.8,102.1z"/>
<path fill="#FFFFFF" stroke="#FFFFFF" stroke-miterlimit="10" d="M583,71.4l4-6c0,0-6.8-9.1-22.2-8.4S540.1,68.6,538,74.6
	c-3.8,10.5-0.4,24.3,4.8,30.2c4.5,5.2,15.4,9.9,23.5,13.2c13.8,5.8,16.2,23,9.8,33c-12.9,19.8-39.9,2.8-39.9,2.8l-3.1,7.8
	c0,0,14.2,11.2,33.4,6.8c16.5-3.8,21.5-16.6,23.1-22.5c2-7.5,2-27.4-15-34.8c-18.8-8.2-31.8-14-27.8-30.8c3.5-14.5,14.9-15,19.5-15
	C574,65.4,583,71.4,583,71.4z"/>
<path fill="#FFFFFF" stroke="#FFFFFF" stroke-miterlimit="10" d="M609.5,65.1v103.5h37V83.1c0,0,0.8-2.5,9.5-2s10.5,6.8,10.5,13.8
	s0,74.8,0,74.8h37V93.1c0,0,3.5-30.2-32-35S614.5,63.4,609.5,65.1z"/>
<path fill="#FFFFFF" stroke="#FFFFFF" stroke-miterlimit="10" d="M793.2,63.5c-5.7-3.5-12.6-5.8-29.9-5.8c-20-0.1-39.1,8.2-39.1,8.2
	l7.9,22.1c0,0,12.6-6,24.3-7.1c23.6-2.1,19.3,14.5,19.3,14.5s-23.2,3-31.7,6.7s-25,9.2-25.7,33s19.1,33.1,42.5,34.5
	c26.9,1.6,48.3-7.8,48.3-7.8l0.2-56C809.2,105.9,811.8,74.9,793.2,63.5z M775.5,147.1c0,0-23,7.8-23-16.5c0-17.7,23-16.5,23-16.5
	V147.1z"/>
<rect x="830" y="59.1" fill="#FFFFFF" width="36" height="109"/>
<path fill="#FFFFFF" d="M848,10.6c0,0,18.5,1.5,19,17.5c0,0-0.5,17.8-19,17.8s-19-15.2-19-17.6S830.8,13.1,848,10.6z"/>
<rect x="887" y="11.1" fill="#FFFFFF" width="36" height="157"/>
<path fill="#FFFFFF" d="M1007.8,65.4c0,0-13.9-7.6-30.5-7.8c-16.5-0.2-31.8,5.5-36.5,26.5c-5.2,23.2,7.8,29.5,12.5,34
	c3.9,3.7,24.5,9.8,18.8,20.5c-6.7,12.5-25.8-1.8-25.8-1.8l-10,24.5c0,0,11.9,9.4,37.1,8.4s31.4-16.6,34.4-21.5s8.8-33.6-17.5-44.2
	c-25.5-10.2-12.5-22.5-6.5-22.5c9,0,15,5.8,15,5.8L1007.8,65.4z"/>
</svg>
